<svg xmlns="http://www.w3.org/2000/svg" viewBox="0 0 232.74 268.41"><defs><style>.cls-1{fill:#292e5e;}.cls-2{fill:#a71735;}.cls-3{fill:#fff;}</style></defs><title>Logo touch</title><g id="Calque_2" data-name="Calque 2"><g id="Calque_1-2" data-name="Calque 1"><path class="cls-1" d="M170.61,183.1a85.31,85.31,0,1,1-85.3-85.31,85.31,85.31,0,0,1,85.3,85.31"/><path class="cls-2" d="M224.5,75A66.77,66.77,0,1,1,157.73,8.24,66.76,66.76,0,0,1,224.5,75"/><path class="cls-3" d="M35.69,171.08H15.76c-2,0-2.69.71-2.69,2.69v5.55h6.05v-1.53a.78.78,0,0,1,.85-.86h2.27v22h7v-22h2.26a.78.78,0,0,1,.86.86v1.53h6v-5.55c0-2-.7-2.69-2.69-2.69"/><path class="cls-3" d="M149.83,171.08c-2,0-2.85.86-2.85,2.85v8.31h-9.44v-8.31c0-2-.85-2.85-2.84-2.85H128v5.85h1.67a.78.78,0,0,1,.86.86V199h7V188.05H147V199h7V177.79a.78.78,0,0,1,.86-.86h1.67v-5.85Z"/><path class="cls-3" d="M114.53,193c-4.1,0-7.49-3.71-7.49-8.27,0-5.07,3.28-7.69,7.33-7.69,1.8,0,4.29.63,4.29,2.23v1.52h6.25v-3.67c0-5.1-7-6.45-10.43-6.51H91.4c-2,0-2.85.85-2.85,2.84v15.07a4.49,4.49,0,1,1-9,0V173.45c0-2-.86-2.84-2.85-2.84H53.43c-8.26.16-14.27,6.34-14.27,14.23a14.28,14.28,0,0,0,14.59,14.59,14.58,14.58,0,0,0,11.93-23h6.06a.78.78,0,0,1,.86.86v11.4c0,6.27,4.52,10.72,11.5,10.72S95.53,195,95.53,188.72v-11.4a.78.78,0,0,1,.86-.86h6a14.15,14.15,0,0,0-2.59,8.28c0,8.38,5.82,14.7,14.63,14.7a16,16,0,0,0,11.63-5l-3.55-5a11.36,11.36,0,0,1-8,3.55m-60.78,0c-4,0-7.33-3.52-7.33-8.16a7.35,7.35,0,1,1,14.67,0c0,4.64-3.28,8.16-7.34,8.16"/><path class="cls-3" d="M226.85,45.81A75.17,75.17,0,1,0,232.74,75a75.28,75.28,0,0,0-5.89-29.2M93.07,75A64.22,64.22,0,1,1,96,94.24,64.43,64.43,0,0,1,93.07,75"/><path class="cls-3" d="M125.36,64.22h-9.21a.37.37,0,0,0-.41.42V90.05a.36.36,0,0,0,.41.41h5a.37.37,0,0,0,.42-.41V80.17c0-.29.12-.41.46-.41h3.33c5,0,8.29-3.25,8.29-7.5,0-5-3.21-8-8.29-8m2.54,8a2.49,2.49,0,0,1-2.54,2.37H122c-.34,0-.46-.12-.46-.41V69.85c0-.3.12-.46.46-.46h3.33a2.52,2.52,0,0,1,2.54,2.41Z"/><path class="cls-3" d="M162.86,64.22h-5a.38.38,0,0,0-.42.42V90.05a.37.37,0,0,0,.42.41h5c.29,0,.46-.12.46-.41V64.64a.41.41,0,0,0-.46-.42"/><path class="cls-3" d="M186.56,64.22h-4.83c-.29,0-.38.13-.38.42v5.91c0,3.5.13,7,.21,8.71l-.16,0a19.25,19.25,0,0,0-.88-2l-6.83-12.79a.49.49,0,0,0-.46-.25H168.9a.37.37,0,0,0-.41.42V90.05a.36.36,0,0,0,.41.41h4.92c.29,0,.41-.12.41-.41V84.21c0-3.87-.12-7.12-.25-8.62l.17,0a16.34,16.34,0,0,0,.87,2l6.83,12.58a.58.58,0,0,0,.46.29h4.25c.29,0,.42-.12.42-.41V64.64a.38.38,0,0,0-.42-.42"/><path class="cls-3" d="M206.14,64.22H190.27a.38.38,0,0,0-.42.42V69c0,.29.17.38.42.38h4.58c.37,0,.46.17.46.46v20.2a.36.36,0,0,0,.41.41h5c.25,0,.37-.12.37-.41V69.85c0-.29.13-.46.5-.46h4.59c.25,0,.37-.09.37-.38V64.64a.37.37,0,0,0-.37-.42"/><path class="cls-3" d="M144.34,63.74a8.23,8.23,0,0,0-6.14,13.71,8.23,8.23,0,1,0,12.28,0,8.23,8.23,0,0,0-6.14-13.71m0,16.46a8.21,8.21,0,0,1-6.14-2.75,8.23,8.23,0,0,1,12.28,0,8.21,8.21,0,0,1-6.14,2.75"/></g></g></svg>